<mxfile host="app.diagrams.net" modified="2023-11-27T17:45:26.783Z" agent="Mozilla/5.0 (Windows NT 10.0; Win64; x64) AppleWebKit/537.36 (KHTML, like Gecko) Chrome/119.0.0.0 Safari/537.36" etag="LMr5TWd8sXt6DpWXBAV-" version="22.1.4" type="device">
  <diagram name="Page-1" id="8k7pWYaEYllBveLCESe3">
    <mxGraphModel dx="1460" dy="1419" grid="1" gridSize="10" guides="1" tooltips="1" connect="1" arrows="1" fold="1" page="1" pageScale="1" pageWidth="850" pageHeight="1100" math="0" shadow="0">
      <root>
        <mxCell id="0" />
        <mxCell id="1" parent="0" />
        <mxCell id="9UAfSgWn6qtG0ZrZTvN6-54" style="edgeStyle=orthogonalEdgeStyle;rounded=0;orthogonalLoop=1;jettySize=auto;html=1;endArrow=diamond;endFill=1;" parent="1" source="9UAfSgWn6qtG0ZrZTvN6-2" target="9UAfSgWn6qtG0ZrZTvN6-37" edge="1">
          <mxGeometry relative="1" as="geometry" />
        </mxCell>
        <mxCell id="9UAfSgWn6qtG0ZrZTvN6-117" value="1..n" style="edgeLabel;html=1;align=center;verticalAlign=middle;resizable=0;points=[];" parent="9UAfSgWn6qtG0ZrZTvN6-54" vertex="1" connectable="0">
          <mxGeometry x="-0.1289" y="2" relative="1" as="geometry">
            <mxPoint x="12" y="12" as="offset" />
          </mxGeometry>
        </mxCell>
        <mxCell id="9UAfSgWn6qtG0ZrZTvN6-118" value="0..n" style="edgeLabel;html=1;align=center;verticalAlign=middle;resizable=0;points=[];" parent="9UAfSgWn6qtG0ZrZTvN6-54" vertex="1" connectable="0">
          <mxGeometry x="0.6062" relative="1" as="geometry">
            <mxPoint x="20" as="offset" />
          </mxGeometry>
        </mxCell>
        <mxCell id="9UAfSgWn6qtG0ZrZTvN6-2" value="Druh leku" style="swimlane;fontStyle=0;childLayout=stackLayout;horizontal=1;startSize=30;horizontalStack=0;resizeParent=1;resizeParentMax=0;resizeLast=0;collapsible=1;marginBottom=0;whiteSpace=wrap;html=1;" parent="1" vertex="1">
          <mxGeometry x="180" y="240" width="140" height="210" as="geometry" />
        </mxCell>
        <mxCell id="9UAfSgWn6qtG0ZrZTvN6-3" value="&lt;div&gt;-ID:int&lt;/div&gt;" style="text;strokeColor=none;fillColor=none;align=left;verticalAlign=middle;spacingLeft=4;spacingRight=4;overflow=hidden;points=[[0,0.5],[1,0.5]];portConstraint=eastwest;rotatable=0;whiteSpace=wrap;html=1;" parent="9UAfSgWn6qtG0ZrZTvN6-2" vertex="1">
          <mxGeometry y="30" width="140" height="30" as="geometry" />
        </mxCell>
        <mxCell id="9UAfSgWn6qtG0ZrZTvN6-4" value="+nazev:string" style="text;strokeColor=none;fillColor=none;align=left;verticalAlign=middle;spacingLeft=4;spacingRight=4;overflow=hidden;points=[[0,0.5],[1,0.5]];portConstraint=eastwest;rotatable=0;whiteSpace=wrap;html=1;" parent="9UAfSgWn6qtG0ZrZTvN6-2" vertex="1">
          <mxGeometry y="60" width="140" height="30" as="geometry" />
        </mxCell>
        <mxCell id="9UAfSgWn6qtG0ZrZTvN6-5" value="&lt;div&gt;+Je_na_predpis:bool&lt;/div&gt;" style="text;strokeColor=none;fillColor=none;align=left;verticalAlign=middle;spacingLeft=4;spacingRight=4;overflow=hidden;points=[[0,0.5],[1,0.5]];portConstraint=eastwest;rotatable=0;whiteSpace=wrap;html=1;" parent="9UAfSgWn6qtG0ZrZTvN6-2" vertex="1">
          <mxGeometry y="90" width="140" height="30" as="geometry" />
        </mxCell>
        <mxCell id="9UAfSgWn6qtG0ZrZTvN6-6" value="+cena:double" style="text;strokeColor=none;fillColor=none;align=left;verticalAlign=middle;spacingLeft=4;spacingRight=4;overflow=hidden;points=[[0,0.5],[1,0.5]];portConstraint=eastwest;rotatable=0;whiteSpace=wrap;html=1;" parent="9UAfSgWn6qtG0ZrZTvN6-2" vertex="1">
          <mxGeometry y="120" width="140" height="30" as="geometry" />
        </mxCell>
        <mxCell id="9UAfSgWn6qtG0ZrZTvN6-145" value="" style="swimlane;startSize=0;" parent="9UAfSgWn6qtG0ZrZTvN6-2" vertex="1">
          <mxGeometry y="150" width="140" height="60" as="geometry" />
        </mxCell>
        <mxCell id="9UAfSgWn6qtG0ZrZTvN6-146" value="+Zmenit_cenu()" style="text;strokeColor=none;fillColor=none;align=left;verticalAlign=middle;spacingLeft=4;spacingRight=4;overflow=hidden;points=[[0,0.5],[1,0.5]];portConstraint=eastwest;rotatable=0;whiteSpace=wrap;html=1;" parent="9UAfSgWn6qtG0ZrZTvN6-145" vertex="1">
          <mxGeometry width="140" height="30" as="geometry" />
        </mxCell>
        <mxCell id="9UAfSgWn6qtG0ZrZTvN6-147" value="+Zmenit_nazev()" style="text;strokeColor=none;fillColor=none;align=left;verticalAlign=middle;spacingLeft=4;spacingRight=4;overflow=hidden;points=[[0,0.5],[1,0.5]];portConstraint=eastwest;rotatable=0;whiteSpace=wrap;html=1;" parent="9UAfSgWn6qtG0ZrZTvN6-145" vertex="1">
          <mxGeometry y="30" width="140" height="30" as="geometry" />
        </mxCell>
        <mxCell id="9UAfSgWn6qtG0ZrZTvN6-62" style="edgeStyle=orthogonalEdgeStyle;rounded=0;orthogonalLoop=1;jettySize=auto;html=1;endArrow=classic;endFill=1;startArrow=none;startFill=0;dashed=1;" parent="1" source="9UAfSgWn6qtG0ZrZTvN6-7" target="9UAfSgWn6qtG0ZrZTvN6-37" edge="1">
          <mxGeometry relative="1" as="geometry">
            <Array as="points">
              <mxPoint x="430" y="130" />
              <mxPoint x="430" y="170" />
            </Array>
          </mxGeometry>
        </mxCell>
        <mxCell id="9UAfSgWn6qtG0ZrZTvN6-7" value="Pobocka" style="swimlane;fontStyle=0;childLayout=stackLayout;horizontal=1;startSize=30;horizontalStack=0;resizeParent=1;resizeParentMax=0;resizeLast=0;collapsible=1;marginBottom=0;whiteSpace=wrap;html=1;" parent="1" vertex="1">
          <mxGeometry x="540" y="50" width="140" height="180" as="geometry" />
        </mxCell>
        <mxCell id="9UAfSgWn6qtG0ZrZTvN6-8" value="-ID:int" style="text;strokeColor=none;fillColor=none;align=left;verticalAlign=middle;spacingLeft=4;spacingRight=4;overflow=hidden;points=[[0,0.5],[1,0.5]];portConstraint=eastwest;rotatable=0;whiteSpace=wrap;html=1;" parent="9UAfSgWn6qtG0ZrZTvN6-7" vertex="1">
          <mxGeometry y="30" width="140" height="30" as="geometry" />
        </mxCell>
        <mxCell id="9UAfSgWn6qtG0ZrZTvN6-9" value="+Adresa:string" style="text;strokeColor=none;fillColor=none;align=left;verticalAlign=middle;spacingLeft=4;spacingRight=4;overflow=hidden;points=[[0,0.5],[1,0.5]];portConstraint=eastwest;rotatable=0;whiteSpace=wrap;html=1;" parent="9UAfSgWn6qtG0ZrZTvN6-7" vertex="1">
          <mxGeometry y="60" width="140" height="30" as="geometry" />
        </mxCell>
        <mxCell id="9UAfSgWn6qtG0ZrZTvN6-10" value="+kontakt:string" style="text;strokeColor=none;fillColor=none;align=left;verticalAlign=middle;spacingLeft=4;spacingRight=4;overflow=hidden;points=[[0,0.5],[1,0.5]];portConstraint=eastwest;rotatable=0;whiteSpace=wrap;html=1;" parent="9UAfSgWn6qtG0ZrZTvN6-7" vertex="1">
          <mxGeometry y="90" width="140" height="30" as="geometry" />
        </mxCell>
        <mxCell id="9UAfSgWn6qtG0ZrZTvN6-150" value="" style="swimlane;startSize=0;" parent="9UAfSgWn6qtG0ZrZTvN6-7" vertex="1">
          <mxGeometry y="120" width="140" height="60" as="geometry" />
        </mxCell>
        <mxCell id="9UAfSgWn6qtG0ZrZTvN6-151" value="+Zmenit_kontakt()" style="text;strokeColor=none;fillColor=none;align=left;verticalAlign=middle;spacingLeft=4;spacingRight=4;overflow=hidden;points=[[0,0.5],[1,0.5]];portConstraint=eastwest;rotatable=0;whiteSpace=wrap;html=1;" parent="9UAfSgWn6qtG0ZrZTvN6-150" vertex="1">
          <mxGeometry width="140" height="30" as="geometry" />
        </mxCell>
        <mxCell id="9UAfSgWn6qtG0ZrZTvN6-152" value="+Zmenit_adresu()" style="text;strokeColor=none;fillColor=none;align=left;verticalAlign=middle;spacingLeft=4;spacingRight=4;overflow=hidden;points=[[0,0.5],[1,0.5]];portConstraint=eastwest;rotatable=0;whiteSpace=wrap;html=1;" parent="9UAfSgWn6qtG0ZrZTvN6-150" vertex="1">
          <mxGeometry y="30" width="140" height="30" as="geometry" />
        </mxCell>
        <mxCell id="9UAfSgWn6qtG0ZrZTvN6-16" style="edgeStyle=orthogonalEdgeStyle;rounded=0;orthogonalLoop=1;jettySize=auto;html=1;endArrow=diamond;endFill=1;" parent="1" source="9UAfSgWn6qtG0ZrZTvN6-11" target="9UAfSgWn6qtG0ZrZTvN6-7" edge="1">
          <mxGeometry relative="1" as="geometry" />
        </mxCell>
        <mxCell id="9UAfSgWn6qtG0ZrZTvN6-63" value="1" style="edgeLabel;html=1;align=center;verticalAlign=middle;resizable=0;points=[];" parent="9UAfSgWn6qtG0ZrZTvN6-16" vertex="1" connectable="0">
          <mxGeometry x="0.6124" y="-1" relative="1" as="geometry">
            <mxPoint x="9" y="-4" as="offset" />
          </mxGeometry>
        </mxCell>
        <mxCell id="9UAfSgWn6qtG0ZrZTvN6-64" value="1..n" style="edgeLabel;html=1;align=center;verticalAlign=middle;resizable=0;points=[];" parent="9UAfSgWn6qtG0ZrZTvN6-16" vertex="1" connectable="0">
          <mxGeometry x="-0.6899" relative="1" as="geometry">
            <mxPoint x="10" as="offset" />
          </mxGeometry>
        </mxCell>
        <mxCell id="9UAfSgWn6qtG0ZrZTvN6-18" style="edgeStyle=orthogonalEdgeStyle;rounded=0;orthogonalLoop=1;jettySize=auto;html=1;endArrow=diamond;endFill=0;" parent="1" source="9UAfSgWn6qtG0ZrZTvN6-11" target="9UAfSgWn6qtG0ZrZTvN6-2" edge="1">
          <mxGeometry relative="1" as="geometry">
            <Array as="points">
              <mxPoint x="430" y="370" />
              <mxPoint x="430" y="320" />
            </Array>
          </mxGeometry>
        </mxCell>
        <mxCell id="9UAfSgWn6qtG0ZrZTvN6-19" value="0..n" style="edgeLabel;html=1;align=center;verticalAlign=middle;resizable=0;points=[];" parent="9UAfSgWn6qtG0ZrZTvN6-18" vertex="1" connectable="0">
          <mxGeometry x="0.8605" y="1" relative="1" as="geometry">
            <mxPoint x="-4" y="14" as="offset" />
          </mxGeometry>
        </mxCell>
        <mxCell id="9UAfSgWn6qtG0ZrZTvN6-20" value="0..n" style="edgeLabel;html=1;align=center;verticalAlign=middle;resizable=0;points=[];" parent="9UAfSgWn6qtG0ZrZTvN6-18" vertex="1" connectable="0">
          <mxGeometry x="-0.9426" y="2" relative="1" as="geometry">
            <mxPoint x="-5" y="-12" as="offset" />
          </mxGeometry>
        </mxCell>
        <mxCell id="9UAfSgWn6qtG0ZrZTvN6-11" value="Sklad" style="swimlane;fontStyle=0;childLayout=stackLayout;horizontal=1;startSize=30;horizontalStack=0;resizeParent=1;resizeParentMax=0;resizeLast=0;collapsible=1;marginBottom=0;whiteSpace=wrap;html=1;" parent="1" vertex="1">
          <mxGeometry x="540" y="310" width="140" height="180" as="geometry" />
        </mxCell>
        <mxCell id="9UAfSgWn6qtG0ZrZTvN6-12" value="-ID_Pobocky:int" style="text;strokeColor=none;fillColor=none;align=left;verticalAlign=middle;spacingLeft=4;spacingRight=4;overflow=hidden;points=[[0,0.5],[1,0.5]];portConstraint=eastwest;rotatable=0;whiteSpace=wrap;html=1;" parent="9UAfSgWn6qtG0ZrZTvN6-11" vertex="1">
          <mxGeometry y="30" width="140" height="30" as="geometry" />
        </mxCell>
        <mxCell id="9UAfSgWn6qtG0ZrZTvN6-13" value="-ID_Skladu:int" style="text;strokeColor=none;fillColor=none;align=left;verticalAlign=middle;spacingLeft=4;spacingRight=4;overflow=hidden;points=[[0,0.5],[1,0.5]];portConstraint=eastwest;rotatable=0;whiteSpace=wrap;html=1;" parent="9UAfSgWn6qtG0ZrZTvN6-11" vertex="1">
          <mxGeometry y="60" width="140" height="30" as="geometry" />
        </mxCell>
        <mxCell id="9UAfSgWn6qtG0ZrZTvN6-14" value="+Velikost:int" style="text;strokeColor=none;fillColor=none;align=left;verticalAlign=middle;spacingLeft=4;spacingRight=4;overflow=hidden;points=[[0,0.5],[1,0.5]];portConstraint=eastwest;rotatable=0;whiteSpace=wrap;html=1;" parent="9UAfSgWn6qtG0ZrZTvN6-11" vertex="1">
          <mxGeometry y="90" width="140" height="30" as="geometry" />
        </mxCell>
        <mxCell id="9UAfSgWn6qtG0ZrZTvN6-148" value="" style="swimlane;startSize=0;" parent="9UAfSgWn6qtG0ZrZTvN6-11" vertex="1">
          <mxGeometry y="120" width="140" height="60" as="geometry" />
        </mxCell>
        <mxCell id="9UAfSgWn6qtG0ZrZTvN6-149" value="+Zmenit_velikost()" style="text;strokeColor=none;fillColor=none;align=left;verticalAlign=middle;spacingLeft=4;spacingRight=4;overflow=hidden;points=[[0,0.5],[1,0.5]];portConstraint=eastwest;rotatable=0;whiteSpace=wrap;html=1;" parent="9UAfSgWn6qtG0ZrZTvN6-148" vertex="1">
          <mxGeometry width="140" height="30" as="geometry" />
        </mxCell>
        <mxCell id="X-pzjNsjuKzhfCbZi668-6" value="+Najdi_druh_leku()" style="text;strokeColor=none;fillColor=none;align=left;verticalAlign=middle;spacingLeft=4;spacingRight=4;overflow=hidden;points=[[0,0.5],[1,0.5]];portConstraint=eastwest;rotatable=0;whiteSpace=wrap;html=1;" vertex="1" parent="9UAfSgWn6qtG0ZrZTvN6-148">
          <mxGeometry y="30" width="140" height="30" as="geometry" />
        </mxCell>
        <mxCell id="9UAfSgWn6qtG0ZrZTvN6-94" style="edgeStyle=orthogonalEdgeStyle;rounded=0;orthogonalLoop=1;jettySize=auto;html=1;endArrow=none;endFill=0;" parent="1" source="9UAfSgWn6qtG0ZrZTvN6-23" target="9UAfSgWn6qtG0ZrZTvN6-2" edge="1">
          <mxGeometry relative="1" as="geometry">
            <Array as="points">
              <mxPoint x="250" y="620" />
            </Array>
          </mxGeometry>
        </mxCell>
        <mxCell id="9UAfSgWn6qtG0ZrZTvN6-95" value="Dodava" style="edgeLabel;html=1;align=center;verticalAlign=middle;resizable=0;points=[];" parent="9UAfSgWn6qtG0ZrZTvN6-94" vertex="1" connectable="0">
          <mxGeometry x="0.2251" y="-4" relative="1" as="geometry">
            <mxPoint as="offset" />
          </mxGeometry>
        </mxCell>
        <mxCell id="9UAfSgWn6qtG0ZrZTvN6-96" value="1..n" style="edgeLabel;html=1;align=center;verticalAlign=middle;resizable=0;points=[];" parent="9UAfSgWn6qtG0ZrZTvN6-94" vertex="1" connectable="0">
          <mxGeometry x="0.9575" relative="1" as="geometry">
            <mxPoint x="10" y="3" as="offset" />
          </mxGeometry>
        </mxCell>
        <mxCell id="9UAfSgWn6qtG0ZrZTvN6-97" value="1..n" style="edgeLabel;html=1;align=center;verticalAlign=middle;resizable=0;points=[];" parent="9UAfSgWn6qtG0ZrZTvN6-94" vertex="1" connectable="0">
          <mxGeometry x="-0.9452" y="-2" relative="1" as="geometry">
            <mxPoint y="-8" as="offset" />
          </mxGeometry>
        </mxCell>
        <mxCell id="9UAfSgWn6qtG0ZrZTvN6-23" value="Dodavatel" style="swimlane;fontStyle=0;childLayout=stackLayout;horizontal=1;startSize=30;horizontalStack=0;resizeParent=1;resizeParentMax=0;resizeLast=0;collapsible=1;marginBottom=0;whiteSpace=wrap;html=1;" parent="1" vertex="1">
          <mxGeometry x="410" y="530" width="140" height="210" as="geometry" />
        </mxCell>
        <mxCell id="9UAfSgWn6qtG0ZrZTvN6-24" value="-ID:int" style="text;strokeColor=none;fillColor=none;align=left;verticalAlign=middle;spacingLeft=4;spacingRight=4;overflow=hidden;points=[[0,0.5],[1,0.5]];portConstraint=eastwest;rotatable=0;whiteSpace=wrap;html=1;" parent="9UAfSgWn6qtG0ZrZTvN6-23" vertex="1">
          <mxGeometry y="30" width="140" height="30" as="geometry" />
        </mxCell>
        <mxCell id="9UAfSgWn6qtG0ZrZTvN6-25" value="-ico:int" style="text;strokeColor=none;fillColor=none;align=left;verticalAlign=middle;spacingLeft=4;spacingRight=4;overflow=hidden;points=[[0,0.5],[1,0.5]];portConstraint=eastwest;rotatable=0;whiteSpace=wrap;html=1;" parent="9UAfSgWn6qtG0ZrZTvN6-23" vertex="1">
          <mxGeometry y="60" width="140" height="30" as="geometry" />
        </mxCell>
        <mxCell id="9UAfSgWn6qtG0ZrZTvN6-26" value="-dic:int" style="text;strokeColor=none;fillColor=none;align=left;verticalAlign=middle;spacingLeft=4;spacingRight=4;overflow=hidden;points=[[0,0.5],[1,0.5]];portConstraint=eastwest;rotatable=0;whiteSpace=wrap;html=1;" parent="9UAfSgWn6qtG0ZrZTvN6-23" vertex="1">
          <mxGeometry y="90" width="140" height="30" as="geometry" />
        </mxCell>
        <mxCell id="9UAfSgWn6qtG0ZrZTvN6-45" value="+jmeno:string" style="text;strokeColor=none;fillColor=none;align=left;verticalAlign=middle;spacingLeft=4;spacingRight=4;overflow=hidden;points=[[0,0.5],[1,0.5]];portConstraint=eastwest;rotatable=0;whiteSpace=wrap;html=1;" parent="9UAfSgWn6qtG0ZrZTvN6-23" vertex="1">
          <mxGeometry y="120" width="140" height="30" as="geometry" />
        </mxCell>
        <mxCell id="9UAfSgWn6qtG0ZrZTvN6-46" value="+kontakt:string" style="text;strokeColor=none;fillColor=none;align=left;verticalAlign=middle;spacingLeft=4;spacingRight=4;overflow=hidden;points=[[0,0.5],[1,0.5]];portConstraint=eastwest;rotatable=0;whiteSpace=wrap;html=1;" parent="9UAfSgWn6qtG0ZrZTvN6-23" vertex="1">
          <mxGeometry y="150" width="140" height="30" as="geometry" />
        </mxCell>
        <mxCell id="9UAfSgWn6qtG0ZrZTvN6-134" value="" style="swimlane;startSize=0;" parent="9UAfSgWn6qtG0ZrZTvN6-23" vertex="1">
          <mxGeometry y="180" width="140" height="30" as="geometry" />
        </mxCell>
        <mxCell id="9UAfSgWn6qtG0ZrZTvN6-136" value="+Zmenit_udaje()" style="text;strokeColor=none;fillColor=none;align=left;verticalAlign=middle;spacingLeft=4;spacingRight=4;overflow=hidden;points=[[0,0.5],[1,0.5]];portConstraint=eastwest;rotatable=0;whiteSpace=wrap;html=1;" parent="9UAfSgWn6qtG0ZrZTvN6-134" vertex="1">
          <mxGeometry width="140" height="30" as="geometry" />
        </mxCell>
        <mxCell id="9UAfSgWn6qtG0ZrZTvN6-58" style="edgeStyle=orthogonalEdgeStyle;rounded=0;orthogonalLoop=1;jettySize=auto;html=1;endArrow=none;endFill=0;" parent="1" source="9UAfSgWn6qtG0ZrZTvN6-27" target="9UAfSgWn6qtG0ZrZTvN6-48" edge="1">
          <mxGeometry relative="1" as="geometry" />
        </mxCell>
        <mxCell id="9UAfSgWn6qtG0ZrZTvN6-113" value="doplaci" style="edgeLabel;html=1;align=center;verticalAlign=middle;resizable=0;points=[];" parent="9UAfSgWn6qtG0ZrZTvN6-58" vertex="1" connectable="0">
          <mxGeometry x="-0.1148" y="-1" relative="1" as="geometry">
            <mxPoint as="offset" />
          </mxGeometry>
        </mxCell>
        <mxCell id="9UAfSgWn6qtG0ZrZTvN6-114" value="0..n" style="edgeLabel;html=1;align=center;verticalAlign=middle;resizable=0;points=[];" parent="9UAfSgWn6qtG0ZrZTvN6-58" vertex="1" connectable="0">
          <mxGeometry x="0.5889" relative="1" as="geometry">
            <mxPoint x="10" as="offset" />
          </mxGeometry>
        </mxCell>
        <mxCell id="9UAfSgWn6qtG0ZrZTvN6-115" value="1" style="edgeLabel;html=1;align=center;verticalAlign=middle;resizable=0;points=[];" parent="9UAfSgWn6qtG0ZrZTvN6-58" vertex="1" connectable="0">
          <mxGeometry x="-0.6704" y="-1" relative="1" as="geometry">
            <mxPoint x="11" as="offset" />
          </mxGeometry>
        </mxCell>
        <mxCell id="9UAfSgWn6qtG0ZrZTvN6-27" value="Pojistovna" style="swimlane;fontStyle=0;childLayout=stackLayout;horizontal=1;startSize=30;horizontalStack=0;resizeParent=1;resizeParentMax=0;resizeLast=0;collapsible=1;marginBottom=0;whiteSpace=wrap;html=1;" parent="1" vertex="1">
          <mxGeometry x="-40" y="-30" width="140" height="180" as="geometry" />
        </mxCell>
        <mxCell id="9UAfSgWn6qtG0ZrZTvN6-28" value="-ID:int" style="text;strokeColor=none;fillColor=none;align=left;verticalAlign=middle;spacingLeft=4;spacingRight=4;overflow=hidden;points=[[0,0.5],[1,0.5]];portConstraint=eastwest;rotatable=0;whiteSpace=wrap;html=1;" parent="9UAfSgWn6qtG0ZrZTvN6-27" vertex="1">
          <mxGeometry y="30" width="140" height="30" as="geometry" />
        </mxCell>
        <mxCell id="9UAfSgWn6qtG0ZrZTvN6-29" value="+doplatek:double" style="text;strokeColor=none;fillColor=none;align=left;verticalAlign=middle;spacingLeft=4;spacingRight=4;overflow=hidden;points=[[0,0.5],[1,0.5]];portConstraint=eastwest;rotatable=0;whiteSpace=wrap;html=1;" parent="9UAfSgWn6qtG0ZrZTvN6-27" vertex="1">
          <mxGeometry y="60" width="140" height="30" as="geometry" />
        </mxCell>
        <mxCell id="9UAfSgWn6qtG0ZrZTvN6-30" value="+nazev:string" style="text;strokeColor=none;fillColor=none;align=left;verticalAlign=middle;spacingLeft=4;spacingRight=4;overflow=hidden;points=[[0,0.5],[1,0.5]];portConstraint=eastwest;rotatable=0;whiteSpace=wrap;html=1;" parent="9UAfSgWn6qtG0ZrZTvN6-27" vertex="1">
          <mxGeometry y="90" width="140" height="30" as="geometry" />
        </mxCell>
        <mxCell id="9UAfSgWn6qtG0ZrZTvN6-140" value="" style="swimlane;startSize=0;" parent="9UAfSgWn6qtG0ZrZTvN6-27" vertex="1">
          <mxGeometry y="120" width="140" height="60" as="geometry" />
        </mxCell>
        <mxCell id="9UAfSgWn6qtG0ZrZTvN6-141" value="+Zmenit_doplatek()" style="text;strokeColor=none;fillColor=none;align=left;verticalAlign=middle;spacingLeft=4;spacingRight=4;overflow=hidden;points=[[0,0.5],[1,0.5]];portConstraint=eastwest;rotatable=0;whiteSpace=wrap;html=1;" parent="9UAfSgWn6qtG0ZrZTvN6-140" vertex="1">
          <mxGeometry width="140" height="30" as="geometry" />
        </mxCell>
        <mxCell id="9UAfSgWn6qtG0ZrZTvN6-142" value="+Aktulizovat_udaje()" style="text;strokeColor=none;fillColor=none;align=left;verticalAlign=middle;spacingLeft=4;spacingRight=4;overflow=hidden;points=[[0,0.5],[1,0.5]];portConstraint=eastwest;rotatable=0;whiteSpace=wrap;html=1;" parent="9UAfSgWn6qtG0ZrZTvN6-140" vertex="1">
          <mxGeometry y="30" width="140" height="30" as="geometry" />
        </mxCell>
        <mxCell id="9UAfSgWn6qtG0ZrZTvN6-57" style="edgeStyle=orthogonalEdgeStyle;rounded=0;orthogonalLoop=1;jettySize=auto;html=1;endArrow=none;endFill=0;" parent="1" source="9UAfSgWn6qtG0ZrZTvN6-32" target="9UAfSgWn6qtG0ZrZTvN6-48" edge="1">
          <mxGeometry relative="1" as="geometry">
            <Array as="points">
              <mxPoint x="-100" y="310" />
            </Array>
          </mxGeometry>
        </mxCell>
        <mxCell id="9UAfSgWn6qtG0ZrZTvN6-82" value="Vlastni" style="edgeLabel;html=1;align=center;verticalAlign=middle;resizable=0;points=[];" parent="9UAfSgWn6qtG0ZrZTvN6-57" vertex="1" connectable="0">
          <mxGeometry x="-0.2415" y="-1" relative="1" as="geometry">
            <mxPoint as="offset" />
          </mxGeometry>
        </mxCell>
        <mxCell id="9UAfSgWn6qtG0ZrZTvN6-83" value="1" style="edgeLabel;html=1;align=center;verticalAlign=middle;resizable=0;points=[];" parent="9UAfSgWn6qtG0ZrZTvN6-57" vertex="1" connectable="0">
          <mxGeometry x="-0.8909" relative="1" as="geometry">
            <mxPoint as="offset" />
          </mxGeometry>
        </mxCell>
        <mxCell id="9UAfSgWn6qtG0ZrZTvN6-84" value="0..n" style="edgeLabel;html=1;align=center;verticalAlign=middle;resizable=0;points=[];" parent="9UAfSgWn6qtG0ZrZTvN6-57" vertex="1" connectable="0">
          <mxGeometry x="0.8818" y="1" relative="1" as="geometry">
            <mxPoint as="offset" />
          </mxGeometry>
        </mxCell>
        <mxCell id="9UAfSgWn6qtG0ZrZTvN6-59" style="edgeStyle=orthogonalEdgeStyle;rounded=0;orthogonalLoop=1;jettySize=auto;html=1;endArrow=none;endFill=0;" parent="1" source="9UAfSgWn6qtG0ZrZTvN6-32" target="9UAfSgWn6qtG0ZrZTvN6-41" edge="1">
          <mxGeometry relative="1" as="geometry">
            <Array as="points">
              <mxPoint x="-100" y="610" />
            </Array>
          </mxGeometry>
        </mxCell>
        <mxCell id="9UAfSgWn6qtG0ZrZTvN6-104" value="vytvori" style="edgeLabel;html=1;align=center;verticalAlign=middle;resizable=0;points=[];" parent="9UAfSgWn6qtG0ZrZTvN6-59" vertex="1" connectable="0">
          <mxGeometry x="0.1516" y="-2" relative="1" as="geometry">
            <mxPoint as="offset" />
          </mxGeometry>
        </mxCell>
        <mxCell id="9UAfSgWn6qtG0ZrZTvN6-105" value="1" style="edgeLabel;html=1;align=center;verticalAlign=middle;resizable=0;points=[];" parent="9UAfSgWn6qtG0ZrZTvN6-59" vertex="1" connectable="0">
          <mxGeometry x="-0.946" y="1" relative="1" as="geometry">
            <mxPoint x="9" y="5" as="offset" />
          </mxGeometry>
        </mxCell>
        <mxCell id="9UAfSgWn6qtG0ZrZTvN6-106" value="0..n" style="edgeLabel;html=1;align=center;verticalAlign=middle;resizable=0;points=[];" parent="9UAfSgWn6qtG0ZrZTvN6-59" vertex="1" connectable="0">
          <mxGeometry x="0.9396" relative="1" as="geometry">
            <mxPoint x="-5" y="-10" as="offset" />
          </mxGeometry>
        </mxCell>
        <mxCell id="9UAfSgWn6qtG0ZrZTvN6-32" value="Zakaznik" style="swimlane;fontStyle=0;childLayout=stackLayout;horizontal=1;startSize=30;horizontalStack=0;resizeParent=1;resizeParentMax=0;resizeLast=0;collapsible=1;marginBottom=0;whiteSpace=wrap;html=1;" parent="1" vertex="1">
          <mxGeometry x="-210" y="410" width="140" height="150" as="geometry" />
        </mxCell>
        <mxCell id="9UAfSgWn6qtG0ZrZTvN6-33" value="-ID:int" style="text;strokeColor=none;fillColor=none;align=left;verticalAlign=middle;spacingLeft=4;spacingRight=4;overflow=hidden;points=[[0,0.5],[1,0.5]];portConstraint=eastwest;rotatable=0;whiteSpace=wrap;html=1;" parent="9UAfSgWn6qtG0ZrZTvN6-32" vertex="1">
          <mxGeometry y="30" width="140" height="30" as="geometry" />
        </mxCell>
        <mxCell id="9UAfSgWn6qtG0ZrZTvN6-35" value="-predpis:bool" style="text;strokeColor=none;fillColor=none;align=left;verticalAlign=middle;spacingLeft=4;spacingRight=4;overflow=hidden;points=[[0,0.5],[1,0.5]];portConstraint=eastwest;rotatable=0;whiteSpace=wrap;html=1;" parent="9UAfSgWn6qtG0ZrZTvN6-32" vertex="1">
          <mxGeometry y="60" width="140" height="30" as="geometry" />
        </mxCell>
        <mxCell id="9UAfSgWn6qtG0ZrZTvN6-34" value="+jmeno:string" style="text;strokeColor=none;fillColor=none;align=left;verticalAlign=middle;spacingLeft=4;spacingRight=4;overflow=hidden;points=[[0,0.5],[1,0.5]];portConstraint=eastwest;rotatable=0;whiteSpace=wrap;html=1;" parent="9UAfSgWn6qtG0ZrZTvN6-32" vertex="1">
          <mxGeometry y="90" width="140" height="30" as="geometry" />
        </mxCell>
        <mxCell id="9UAfSgWn6qtG0ZrZTvN6-143" value="" style="swimlane;startSize=0;" parent="9UAfSgWn6qtG0ZrZTvN6-32" vertex="1">
          <mxGeometry y="120" width="140" height="30" as="geometry" />
        </mxCell>
        <mxCell id="9UAfSgWn6qtG0ZrZTvN6-144" value="+Zmenit_jmeno()" style="text;strokeColor=none;fillColor=none;align=left;verticalAlign=middle;spacingLeft=4;spacingRight=4;overflow=hidden;points=[[0,0.5],[1,0.5]];portConstraint=eastwest;rotatable=0;whiteSpace=wrap;html=1;" parent="9UAfSgWn6qtG0ZrZTvN6-143" vertex="1">
          <mxGeometry width="140" height="30" as="geometry" />
        </mxCell>
        <mxCell id="9UAfSgWn6qtG0ZrZTvN6-37" value="Prodej" style="swimlane;fontStyle=0;childLayout=stackLayout;horizontal=1;startSize=30;horizontalStack=0;resizeParent=1;resizeParentMax=0;resizeLast=0;collapsible=1;marginBottom=0;whiteSpace=wrap;html=1;" parent="1" vertex="1">
          <mxGeometry x="180" y="70" width="140" height="120" as="geometry" />
        </mxCell>
        <mxCell id="9UAfSgWn6qtG0ZrZTvN6-38" value="-ID:int" style="text;strokeColor=none;fillColor=none;align=left;verticalAlign=middle;spacingLeft=4;spacingRight=4;overflow=hidden;points=[[0,0.5],[1,0.5]];portConstraint=eastwest;rotatable=0;whiteSpace=wrap;html=1;" parent="9UAfSgWn6qtG0ZrZTvN6-37" vertex="1">
          <mxGeometry y="30" width="140" height="30" as="geometry" />
        </mxCell>
        <mxCell id="9UAfSgWn6qtG0ZrZTvN6-39" value="-datum:Date" style="text;strokeColor=none;fillColor=none;align=left;verticalAlign=middle;spacingLeft=4;spacingRight=4;overflow=hidden;points=[[0,0.5],[1,0.5]];portConstraint=eastwest;rotatable=0;whiteSpace=wrap;html=1;" parent="9UAfSgWn6qtG0ZrZTvN6-37" vertex="1">
          <mxGeometry y="60" width="140" height="30" as="geometry" />
        </mxCell>
        <mxCell id="9UAfSgWn6qtG0ZrZTvN6-40" value="-mnozstvi:int" style="text;strokeColor=none;fillColor=none;align=left;verticalAlign=middle;spacingLeft=4;spacingRight=4;overflow=hidden;points=[[0,0.5],[1,0.5]];portConstraint=eastwest;rotatable=0;whiteSpace=wrap;html=1;" parent="9UAfSgWn6qtG0ZrZTvN6-37" vertex="1">
          <mxGeometry y="90" width="140" height="30" as="geometry" />
        </mxCell>
        <mxCell id="9UAfSgWn6qtG0ZrZTvN6-60" style="edgeStyle=orthogonalEdgeStyle;rounded=0;orthogonalLoop=1;jettySize=auto;html=1;endArrow=none;endFill=0;" parent="1" source="9UAfSgWn6qtG0ZrZTvN6-41" target="9UAfSgWn6qtG0ZrZTvN6-2" edge="1">
          <mxGeometry relative="1" as="geometry">
            <Array as="points">
              <mxPoint x="115" y="530" />
              <mxPoint x="200" y="530" />
            </Array>
          </mxGeometry>
        </mxCell>
        <mxCell id="9UAfSgWn6qtG0ZrZTvN6-107" value="objednava" style="edgeLabel;html=1;align=center;verticalAlign=middle;resizable=0;points=[];" parent="9UAfSgWn6qtG0ZrZTvN6-60" vertex="1" connectable="0">
          <mxGeometry x="0.1362" y="2" relative="1" as="geometry">
            <mxPoint as="offset" />
          </mxGeometry>
        </mxCell>
        <mxCell id="9UAfSgWn6qtG0ZrZTvN6-108" value="0..n" style="edgeLabel;html=1;align=center;verticalAlign=middle;resizable=0;points=[];" parent="9UAfSgWn6qtG0ZrZTvN6-60" vertex="1" connectable="0">
          <mxGeometry x="-0.8985" relative="1" as="geometry">
            <mxPoint x="5" as="offset" />
          </mxGeometry>
        </mxCell>
        <mxCell id="9UAfSgWn6qtG0ZrZTvN6-109" value="1..n" style="edgeLabel;html=1;align=center;verticalAlign=middle;resizable=0;points=[];" parent="9UAfSgWn6qtG0ZrZTvN6-60" vertex="1" connectable="0">
          <mxGeometry x="0.895" relative="1" as="geometry">
            <mxPoint x="-10" as="offset" />
          </mxGeometry>
        </mxCell>
        <mxCell id="9UAfSgWn6qtG0ZrZTvN6-41" value="Rezervace" style="swimlane;fontStyle=0;childLayout=stackLayout;horizontal=1;startSize=30;horizontalStack=0;resizeParent=1;resizeParentMax=0;resizeLast=0;collapsible=1;marginBottom=0;whiteSpace=wrap;html=1;" parent="1" vertex="1">
          <mxGeometry y="590" width="150" height="240" as="geometry" />
        </mxCell>
        <mxCell id="9UAfSgWn6qtG0ZrZTvN6-42" value="-ID:int" style="text;strokeColor=none;fillColor=none;align=left;verticalAlign=middle;spacingLeft=4;spacingRight=4;overflow=hidden;points=[[0,0.5],[1,0.5]];portConstraint=eastwest;rotatable=0;whiteSpace=wrap;html=1;" parent="9UAfSgWn6qtG0ZrZTvN6-41" vertex="1">
          <mxGeometry y="30" width="150" height="30" as="geometry" />
        </mxCell>
        <mxCell id="9UAfSgWn6qtG0ZrZTvN6-43" value="-cas vytvoreni:Date" style="text;strokeColor=none;fillColor=none;align=left;verticalAlign=middle;spacingLeft=4;spacingRight=4;overflow=hidden;points=[[0,0.5],[1,0.5]];portConstraint=eastwest;rotatable=0;whiteSpace=wrap;html=1;" parent="9UAfSgWn6qtG0ZrZTvN6-41" vertex="1">
          <mxGeometry y="60" width="150" height="30" as="geometry" />
        </mxCell>
        <mxCell id="9UAfSgWn6qtG0ZrZTvN6-44" value="-mnozstvi:int" style="text;strokeColor=none;fillColor=none;align=left;verticalAlign=middle;spacingLeft=4;spacingRight=4;overflow=hidden;points=[[0,0.5],[1,0.5]];portConstraint=eastwest;rotatable=0;whiteSpace=wrap;html=1;" parent="9UAfSgWn6qtG0ZrZTvN6-41" vertex="1">
          <mxGeometry y="90" width="150" height="30" as="geometry" />
        </mxCell>
        <mxCell id="9UAfSgWn6qtG0ZrZTvN6-47" value="-expirace_rezervace:Date" style="text;strokeColor=none;fillColor=none;align=left;verticalAlign=middle;spacingLeft=4;spacingRight=4;overflow=hidden;points=[[0,0.5],[1,0.5]];portConstraint=eastwest;rotatable=0;whiteSpace=wrap;html=1;" parent="9UAfSgWn6qtG0ZrZTvN6-41" vertex="1">
          <mxGeometry y="120" width="150" height="30" as="geometry" />
        </mxCell>
        <mxCell id="9UAfSgWn6qtG0ZrZTvN6-128" value="" style="swimlane;startSize=0;" parent="9UAfSgWn6qtG0ZrZTvN6-41" vertex="1">
          <mxGeometry y="150" width="150" height="90" as="geometry" />
        </mxCell>
        <mxCell id="9UAfSgWn6qtG0ZrZTvN6-129" value="+Vytvor_rezervaci()" style="text;strokeColor=none;fillColor=none;align=left;verticalAlign=middle;spacingLeft=4;spacingRight=4;overflow=hidden;points=[[0,0.5],[1,0.5]];portConstraint=eastwest;rotatable=0;whiteSpace=wrap;html=1;" parent="9UAfSgWn6qtG0ZrZTvN6-128" vertex="1">
          <mxGeometry width="150" height="30" as="geometry" />
        </mxCell>
        <mxCell id="9UAfSgWn6qtG0ZrZTvN6-131" value="+Zrusit_rezervaci()" style="text;strokeColor=none;fillColor=none;align=left;verticalAlign=middle;spacingLeft=4;spacingRight=4;overflow=hidden;points=[[0,0.5],[1,0.5]];portConstraint=eastwest;rotatable=0;whiteSpace=wrap;html=1;" parent="9UAfSgWn6qtG0ZrZTvN6-128" vertex="1">
          <mxGeometry y="30" width="150" height="30" as="geometry" />
        </mxCell>
        <mxCell id="9UAfSgWn6qtG0ZrZTvN6-130" value="+Aktualizovat_rezervaci()" style="text;strokeColor=none;fillColor=none;align=left;verticalAlign=middle;spacingLeft=4;spacingRight=4;overflow=hidden;points=[[0,0.5],[1,0.5]];portConstraint=eastwest;rotatable=0;whiteSpace=wrap;html=1;" parent="9UAfSgWn6qtG0ZrZTvN6-128" vertex="1">
          <mxGeometry y="60" width="150" height="30" as="geometry" />
        </mxCell>
        <mxCell id="9UAfSgWn6qtG0ZrZTvN6-53" style="edgeStyle=orthogonalEdgeStyle;rounded=0;orthogonalLoop=1;jettySize=auto;html=1;endArrow=none;endFill=0;" parent="1" source="9UAfSgWn6qtG0ZrZTvN6-48" target="9UAfSgWn6qtG0ZrZTvN6-4" edge="1">
          <mxGeometry relative="1" as="geometry" />
        </mxCell>
        <mxCell id="9UAfSgWn6qtG0ZrZTvN6-85" value="Predepisuje" style="edgeLabel;html=1;align=center;verticalAlign=middle;resizable=0;points=[];" parent="9UAfSgWn6qtG0ZrZTvN6-53" vertex="1" connectable="0">
          <mxGeometry x="-0.0107" relative="1" as="geometry">
            <mxPoint as="offset" />
          </mxGeometry>
        </mxCell>
        <mxCell id="9UAfSgWn6qtG0ZrZTvN6-86" value="0..n" style="edgeLabel;html=1;align=center;verticalAlign=middle;resizable=0;points=[];" parent="9UAfSgWn6qtG0ZrZTvN6-53" vertex="1" connectable="0">
          <mxGeometry x="-0.8329" y="1" relative="1" as="geometry">
            <mxPoint x="3" y="-14" as="offset" />
          </mxGeometry>
        </mxCell>
        <mxCell id="9UAfSgWn6qtG0ZrZTvN6-87" value="1" style="edgeLabel;html=1;align=center;verticalAlign=middle;resizable=0;points=[];" parent="9UAfSgWn6qtG0ZrZTvN6-53" vertex="1" connectable="0">
          <mxGeometry x="0.8795" relative="1" as="geometry">
            <mxPoint y="-15" as="offset" />
          </mxGeometry>
        </mxCell>
        <mxCell id="9UAfSgWn6qtG0ZrZTvN6-48" value="Predpis" style="swimlane;fontStyle=0;childLayout=stackLayout;horizontal=1;startSize=30;horizontalStack=0;resizeParent=1;resizeParentMax=0;resizeLast=0;collapsible=1;marginBottom=0;whiteSpace=wrap;html=1;" parent="1" vertex="1">
          <mxGeometry x="-40" y="275" width="140" height="210" as="geometry" />
        </mxCell>
        <mxCell id="9UAfSgWn6qtG0ZrZTvN6-49" value="-ID:int" style="text;strokeColor=none;fillColor=none;align=left;verticalAlign=middle;spacingLeft=4;spacingRight=4;overflow=hidden;points=[[0,0.5],[1,0.5]];portConstraint=eastwest;rotatable=0;whiteSpace=wrap;html=1;" parent="9UAfSgWn6qtG0ZrZTvN6-48" vertex="1">
          <mxGeometry y="30" width="140" height="30" as="geometry" />
        </mxCell>
        <mxCell id="9UAfSgWn6qtG0ZrZTvN6-51" value="-Datum_vydeje:Date" style="text;strokeColor=none;fillColor=none;align=left;verticalAlign=middle;spacingLeft=4;spacingRight=4;overflow=hidden;points=[[0,0.5],[1,0.5]];portConstraint=eastwest;rotatable=0;whiteSpace=wrap;html=1;" parent="9UAfSgWn6qtG0ZrZTvN6-48" vertex="1">
          <mxGeometry y="60" width="140" height="30" as="geometry" />
        </mxCell>
        <mxCell id="9UAfSgWn6qtG0ZrZTvN6-52" value="-Platnost_do:Date" style="text;strokeColor=none;fillColor=none;align=left;verticalAlign=middle;spacingLeft=4;spacingRight=4;overflow=hidden;points=[[0,0.5],[1,0.5]];portConstraint=eastwest;rotatable=0;whiteSpace=wrap;html=1;" parent="9UAfSgWn6qtG0ZrZTvN6-48" vertex="1">
          <mxGeometry y="90" width="140" height="30" as="geometry" />
        </mxCell>
        <mxCell id="9UAfSgWn6qtG0ZrZTvN6-50" value="-Doktor:string" style="text;strokeColor=none;fillColor=none;align=left;verticalAlign=middle;spacingLeft=4;spacingRight=4;overflow=hidden;points=[[0,0.5],[1,0.5]];portConstraint=eastwest;rotatable=0;whiteSpace=wrap;html=1;" parent="9UAfSgWn6qtG0ZrZTvN6-48" vertex="1">
          <mxGeometry y="120" width="140" height="30" as="geometry" />
        </mxCell>
        <mxCell id="9UAfSgWn6qtG0ZrZTvN6-155" value="" style="swimlane;startSize=0;" parent="9UAfSgWn6qtG0ZrZTvN6-48" vertex="1">
          <mxGeometry y="150" width="140" height="60" as="geometry" />
        </mxCell>
        <mxCell id="9UAfSgWn6qtG0ZrZTvN6-156" value="+Vytvorit_predpis()" style="text;strokeColor=none;fillColor=none;align=left;verticalAlign=middle;spacingLeft=4;spacingRight=4;overflow=hidden;points=[[0,0.5],[1,0.5]];portConstraint=eastwest;rotatable=0;whiteSpace=wrap;html=1;" parent="9UAfSgWn6qtG0ZrZTvN6-155" vertex="1">
          <mxGeometry width="140" height="30" as="geometry" />
        </mxCell>
        <mxCell id="9UAfSgWn6qtG0ZrZTvN6-158" value="+Zrusit_predpis()" style="text;strokeColor=none;fillColor=none;align=left;verticalAlign=middle;spacingLeft=4;spacingRight=4;overflow=hidden;points=[[0,0.5],[1,0.5]];portConstraint=eastwest;rotatable=0;whiteSpace=wrap;html=1;" parent="9UAfSgWn6qtG0ZrZTvN6-155" vertex="1">
          <mxGeometry y="27.5" width="140" height="30" as="geometry" />
        </mxCell>
        <mxCell id="9UAfSgWn6qtG0ZrZTvN6-81" style="edgeStyle=orthogonalEdgeStyle;rounded=0;orthogonalLoop=1;jettySize=auto;html=1;endArrow=none;endFill=0;dashed=1;" parent="1" source="9UAfSgWn6qtG0ZrZTvN6-77" edge="1">
          <mxGeometry relative="1" as="geometry">
            <mxPoint x="410" y="320" as="targetPoint" />
          </mxGeometry>
        </mxCell>
        <mxCell id="9UAfSgWn6qtG0ZrZTvN6-77" value="Lek na sklade" style="swimlane;fontStyle=0;childLayout=stackLayout;horizontal=1;startSize=30;horizontalStack=0;resizeParent=1;resizeParentMax=0;resizeLast=0;collapsible=1;marginBottom=0;whiteSpace=wrap;html=1;" parent="1" vertex="1">
          <mxGeometry x="340" y="390" width="140" height="120" as="geometry" />
        </mxCell>
        <mxCell id="9UAfSgWn6qtG0ZrZTvN6-79" value="-ID_leku_na_sklade:int" style="text;strokeColor=none;fillColor=none;align=left;verticalAlign=middle;spacingLeft=4;spacingRight=4;overflow=hidden;points=[[0,0.5],[1,0.5]];portConstraint=eastwest;rotatable=0;whiteSpace=wrap;html=1;" parent="9UAfSgWn6qtG0ZrZTvN6-77" vertex="1">
          <mxGeometry y="30" width="140" height="30" as="geometry" />
        </mxCell>
        <mxCell id="9UAfSgWn6qtG0ZrZTvN6-78" value="+mnozstvi:int" style="text;strokeColor=none;fillColor=none;align=left;verticalAlign=middle;spacingLeft=4;spacingRight=4;overflow=hidden;points=[[0,0.5],[1,0.5]];portConstraint=eastwest;rotatable=0;whiteSpace=wrap;html=1;" parent="9UAfSgWn6qtG0ZrZTvN6-77" vertex="1">
          <mxGeometry y="60" width="140" height="30" as="geometry" />
        </mxCell>
        <mxCell id="9UAfSgWn6qtG0ZrZTvN6-153" value="" style="swimlane;startSize=0;" parent="9UAfSgWn6qtG0ZrZTvN6-77" vertex="1">
          <mxGeometry y="90" width="140" height="30" as="geometry" />
        </mxCell>
        <mxCell id="9UAfSgWn6qtG0ZrZTvN6-154" value="+Zmenit_mnozstvi()" style="text;strokeColor=none;fillColor=none;align=left;verticalAlign=middle;spacingLeft=4;spacingRight=4;overflow=hidden;points=[[0,0.5],[1,0.5]];portConstraint=eastwest;rotatable=0;whiteSpace=wrap;html=1;" parent="9UAfSgWn6qtG0ZrZTvN6-153" vertex="1">
          <mxGeometry y="2.5" width="140" height="30" as="geometry" />
        </mxCell>
        <mxCell id="9UAfSgWn6qtG0ZrZTvN6-102" style="edgeStyle=orthogonalEdgeStyle;rounded=0;orthogonalLoop=1;jettySize=auto;html=1;endArrow=none;endFill=0;dashed=1;" parent="1" source="9UAfSgWn6qtG0ZrZTvN6-98" edge="1">
          <mxGeometry relative="1" as="geometry">
            <mxPoint x="270" y="620" as="targetPoint" />
          </mxGeometry>
        </mxCell>
        <mxCell id="9UAfSgWn6qtG0ZrZTvN6-98" value="Dodava" style="swimlane;fontStyle=0;childLayout=stackLayout;horizontal=1;startSize=30;horizontalStack=0;resizeParent=1;resizeParentMax=0;resizeLast=0;collapsible=1;marginBottom=0;whiteSpace=wrap;html=1;" parent="1" vertex="1">
          <mxGeometry x="200" y="650" width="140" height="150" as="geometry" />
        </mxCell>
        <mxCell id="9UAfSgWn6qtG0ZrZTvN6-99" value="-ID_dodavatele:int" style="text;strokeColor=none;fillColor=none;align=left;verticalAlign=middle;spacingLeft=4;spacingRight=4;overflow=hidden;points=[[0,0.5],[1,0.5]];portConstraint=eastwest;rotatable=0;whiteSpace=wrap;html=1;" parent="9UAfSgWn6qtG0ZrZTvN6-98" vertex="1">
          <mxGeometry y="30" width="140" height="30" as="geometry" />
        </mxCell>
        <mxCell id="9UAfSgWn6qtG0ZrZTvN6-101" value="-ID_leku:int" style="text;strokeColor=none;fillColor=none;align=left;verticalAlign=middle;spacingLeft=4;spacingRight=4;overflow=hidden;points=[[0,0.5],[1,0.5]];portConstraint=eastwest;rotatable=0;whiteSpace=wrap;html=1;" parent="9UAfSgWn6qtG0ZrZTvN6-98" vertex="1">
          <mxGeometry y="60" width="140" height="30" as="geometry" />
        </mxCell>
        <mxCell id="9UAfSgWn6qtG0ZrZTvN6-100" value="+cena_za_kus:int" style="text;strokeColor=none;fillColor=none;align=left;verticalAlign=middle;spacingLeft=4;spacingRight=4;overflow=hidden;points=[[0,0.5],[1,0.5]];portConstraint=eastwest;rotatable=0;whiteSpace=wrap;html=1;" parent="9UAfSgWn6qtG0ZrZTvN6-98" vertex="1">
          <mxGeometry y="90" width="140" height="30" as="geometry" />
        </mxCell>
        <mxCell id="9UAfSgWn6qtG0ZrZTvN6-138" value="" style="swimlane;startSize=0;" parent="9UAfSgWn6qtG0ZrZTvN6-98" vertex="1">
          <mxGeometry y="120" width="140" height="30" as="geometry" />
        </mxCell>
        <mxCell id="9UAfSgWn6qtG0ZrZTvN6-139" value="+Zmenit_cenu()" style="text;strokeColor=none;fillColor=none;align=left;verticalAlign=middle;spacingLeft=4;spacingRight=4;overflow=hidden;points=[[0,0.5],[1,0.5]];portConstraint=eastwest;rotatable=0;whiteSpace=wrap;html=1;" parent="9UAfSgWn6qtG0ZrZTvN6-138" vertex="1">
          <mxGeometry width="140" height="30" as="geometry" />
        </mxCell>
        <mxCell id="9UAfSgWn6qtG0ZrZTvN6-159" value="&amp;lt;&amp;lt;instantiates&amp;gt;&amp;gt;" style="text;html=1;align=center;verticalAlign=middle;resizable=0;points=[];autosize=1;strokeColor=none;fillColor=none;" parent="1" vertex="1">
          <mxGeometry x="400" y="100" width="110" height="30" as="geometry" />
        </mxCell>
      </root>
    </mxGraphModel>
  </diagram>
</mxfile>
